<?xml version="1.0" encoding="utf-8"?>
<!-- Generator: Adobe Illustrator 16.0.0, SVG Export Plug-In . SVG Version: 6.00 Build 0)  -->
<!DOCTYPE svg PUBLIC "-//W3C//DTD SVG 1.1//EN" "http://www.w3.org/Graphics/SVG/1.1/DTD/svg11.dtd">
<svg version="1.1" id="Calque_1" xmlns="http://www.w3.org/2000/svg" xmlns:xlink="http://www.w3.org/1999/xlink" x="0px" y="0px"
	 width="396px" height="73.271px" viewBox="0 0 396 73.271" enable-background="new 0 0 396 73.271" xml:space="preserve">
<g>
	<polygon fill="#FFFFFF" points="23.332,25.185 37.553,50.445 40.61,50.445 54.771,25.185 54.771,58.125 60.172,58.125 
		60.172,15.525 54.533,15.525 39.053,43.185 23.633,15.525 17.932,15.525 17.932,58.125 23.332,58.125 	"/>
	<polygon fill="#FFFFFF" points="125.553,58.125 137.912,26.805 132.873,26.805 122.912,53.505 113.014,26.805 107.553,26.805 
		119.912,58.125 	"/>
	<rect x="143.133" y="26.805" fill="#FFFFFF" width="5.279" height="31.319"/>
	<rect x="143.133" y="14.325" fill="#FFFFFF" width="5.279" height="6.6"/>
	<path fill="#FFFFFF" d="M159.272,53.925c1.398,1.48,3.078,2.65,5.039,3.511c1.959,0.86,4.119,1.291,6.48,1.291
		c1.561,0,3.061-0.201,4.5-0.602c1.438-0.398,2.75-0.95,3.93-1.648c1.18-0.7,2.221-1.53,3.119-2.49
		c0.899-0.96,1.611-2.021,2.131-3.18l-4.561-1.261c-0.32,0.802-0.789,1.521-1.41,2.159c-0.619,0.64-1.33,1.181-2.129,1.62
		c-0.803,0.439-1.66,0.79-2.58,1.05c-0.922,0.261-1.861,0.391-2.82,0.391c-1.361,0-2.65-0.261-3.869-0.779
		c-1.221-0.521-2.311-1.239-3.271-2.16c-0.959-0.92-1.74-2.02-2.34-3.3c-0.602-1.28-0.96-2.7-1.08-4.261h25.979
		c0.039-0.199,0.07-0.479,0.09-0.841c0.021-0.358,0.029-0.759,0.029-1.198c0-2.08-0.369-4.091-1.109-6.03
		c-0.738-1.939-1.791-3.639-3.148-5.1c-1.359-1.461-3.01-2.631-4.949-3.511c-1.941-0.879-4.09-1.319-6.449-1.319
		s-4.521,0.43-6.479,1.29c-1.961,0.859-3.65,2.029-5.07,3.51c-1.42,1.479-2.52,3.201-3.301,5.16c-0.779,1.959-1.17,4.042-1.17,6.24
		c0,2.2,0.391,4.289,1.17,6.271C156.783,50.716,157.871,52.446,159.272,53.925z M161.342,36.285c0.58-1.24,1.34-2.31,2.281-3.21
		c0.938-0.9,2.027-1.6,3.27-2.1c1.24-0.5,2.561-0.75,3.961-0.75c1.398,0,2.719,0.25,3.959,0.75s2.33,1.189,3.271,2.069
		c0.938,0.88,1.721,1.95,2.34,3.21c0.621,1.26,0.99,2.63,1.111,4.11h-21.24C160.412,38.885,160.762,37.525,161.342,36.285z"/>
	<path fill="#FFFFFF" d="M74.59,59.28h18.66c4.111,0,7.459-3.346,7.459-7.459v-7.133c0-0.688-0.418-1.306-0.998-1.543
		c-0.65-0.329-1.42-0.177-1.941,0.342l-1.438,1.436c-0.318,0.319-0.492,0.745-0.492,1.2v5.697c0,1.428-1.162,2.589-2.59,2.589H74.59
		c-1.428,0-2.588-1.161-2.588-2.589V33.16c0-1.428,1.16-2.589,2.588-2.589h18.66c0.248,0,0.501,0.034,0.691,0.083
		c0.107,0.036,0.289,0.096,0.52,0.096c0.441,0,0.899-0.193,1.223-0.517l1.104-1.101c0.402-0.405,0.579-0.965,0.474-1.557
		c-0.11-0.54-0.485-1.011-0.967-1.225c-0.941-0.434-1.965-0.652-3.042-0.652H74.59c-4.113,0-7.459,3.346-7.459,7.459v18.661
		C67.131,55.935,70.477,59.28,74.59,59.28z"/>
	<path fill="#FFFFFF" d="M80.086,36.594c-0.717-0.718-1.838-0.718-2.559,0l-2.469,2.468c-0.717,0.718-0.717,1.839,0,2.557
		l9.646,9.646c0.717,0.719,1.838,0.719,2.557,0l16.188-16.244c0.717-0.719,0.717-1.839,0-2.558l-2.471-2.467
		c-0.717-0.718-1.838-0.718-2.555,0L85.983,42.493L80.086,36.594z"/>
	<path fill="#FFFFFF" d="M206.483,51.775c1.779,2.061,3.891,3.729,6.328,5.01c2.439,1.281,5.121,1.92,8.041,1.92
		c1.641,0,3.32-0.22,5.039-0.66c1.721-0.438,3.352-1.079,4.893-1.92c1.537-0.84,2.92-1.868,4.141-3.09
		c1.219-1.22,2.17-2.629,2.85-4.229l-4.5-2.461c-0.6,1.319-1.371,2.45-2.311,3.391c-0.94,0.939-1.949,1.72-3.029,2.34
		c-1.08,0.621-2.211,1.07-3.391,1.35c-1.182,0.28-2.33,0.421-3.449,0.421c-2.121,0-4.08-0.459-5.881-1.38
		c-1.799-0.921-3.359-2.159-4.68-3.721c-1.321-1.561-2.352-3.35-3.092-5.37c-0.738-2.019-1.107-4.148-1.107-6.39
		c0-2,0.309-3.99,0.93-5.97c0.619-1.98,1.549-3.76,2.789-5.341c1.24-1.579,2.771-2.858,4.59-3.84c1.82-0.979,3.91-1.47,6.271-1.47
		c1.08,0,2.18,0.12,3.299,0.36c1.119,0.239,2.211,0.641,3.271,1.199c1.061,0.562,2.039,1.301,2.939,2.221
		c0.898,0.921,1.67,2.061,2.311,3.42l4.262-2.76c-1.32-2.761-3.344-5-6.062-6.721c-2.721-1.72-5.979-2.58-9.779-2.58
		c-3.199,0-6.061,0.621-8.58,1.86c-2.521,1.24-4.648,2.871-6.391,4.89c-1.74,2.021-3.061,4.301-3.961,6.841
		c-0.898,2.541-1.35,5.091-1.35,7.649c0,2.721,0.488,5.392,1.471,8.01C203.321,47.375,204.703,49.716,206.483,51.775z"/>
	<path fill="#FFFFFF" d="M245.963,54.085c1.381,1.48,3.039,2.66,4.979,3.54s4.092,1.32,6.449,1.32c2.359,0,4.51-0.44,6.451-1.32
		c1.938-0.879,3.606-2.06,5.008-3.54c1.4-1.479,2.48-3.199,3.24-5.16c0.76-1.959,1.141-4.02,1.141-6.18
		c0-2.199-0.391-4.279-1.17-6.24c-0.778-1.959-1.857-3.68-3.24-5.16c-1.379-1.479-3.051-2.659-5.01-3.539s-4.1-1.32-6.42-1.32
		s-4.449,0.439-6.391,1.32c-1.939,0.88-3.602,2.061-4.979,3.539c-1.381,1.48-2.461,3.201-3.24,5.16
		c-0.779,1.96-1.17,4.041-1.17,6.24c0,2.16,0.379,4.221,1.141,6.18C243.512,50.885,244.582,52.606,245.963,54.085z M247.821,38.216
		c0.541-1.419,1.281-2.66,2.223-3.721c0.938-1.059,2.039-1.898,3.301-2.52c1.26-0.62,2.609-0.931,4.049-0.931
		c1.44,0,2.791,0.3,4.051,0.9c1.262,0.6,2.369,1.431,3.328,2.49c0.961,1.061,1.711,2.301,2.25,3.72
		c0.541,1.42,0.812,2.931,0.812,4.529c0,1.642-0.271,3.172-0.812,4.591c-0.539,1.42-1.289,2.661-2.25,3.72
		c-0.959,1.062-2.066,1.891-3.328,2.49c-1.26,0.6-2.609,0.899-4.051,0.899c-1.438,0-2.789-0.301-4.049-0.899
		c-1.262-0.601-2.361-1.419-3.301-2.46c-0.939-1.04-1.682-2.261-2.223-3.66c-0.537-1.399-0.809-2.919-0.809-4.56
		C247.014,41.165,247.283,39.635,247.821,38.216z"/>
	<path fill="#FFFFFF" d="M289.312,58.945c2.719,0,5.222-0.63,7.5-1.89c2.279-1.261,4.119-3.069,5.52-5.432l0.121,3.66
		c0.039,0.921,0.408,1.69,1.109,2.31c0.699,0.621,1.568,0.932,2.609,0.932c0.318,0,0.648-0.011,0.988-0.03
		c0.342-0.021,0.812-0.07,1.41-0.15v-4.56c-1.121-0.04-1.68-0.68-1.68-1.92v-24.84h-5.279v19.62
		c-0.922,2.399-2.332,4.289-4.229,5.67c-1.9,1.38-3.931,2.069-6.09,2.069c-4.441,0-6.66-3.2-6.66-9.601v-17.76h-5.281v18.78
		c0,4.358,0.84,7.641,2.521,9.84C283.553,57.847,286.03,58.945,289.312,58.945z"/>
	<path fill="#FFFFFF" d="M320.99,39.445c0.359-1.2,0.9-2.3,1.621-3.3c0.719-0.999,1.561-1.86,2.521-2.58
		c0.959-0.721,1.979-1.29,3.061-1.71c1.078-0.42,2.158-0.63,3.238-0.63c2.08,0,3.631,0.76,4.648,2.279
		c1.021,1.521,1.531,3.96,1.531,7.32v17.521h5.279V39.625c0-1.879-0.15-3.62-0.449-5.22c-0.301-1.6-0.811-2.99-1.531-4.17
		c-0.719-1.18-1.68-2.101-2.879-2.76c-1.201-0.66-2.701-0.99-4.5-0.99c-2.762,0-5.311,0.66-7.648,1.979
		c-2.34,1.32-4.131,3.081-5.371,5.28v-6.72h-4.799v31.318h5.277V39.445L320.99,39.445z"/>
	<path fill="#FFFFFF" d="M352.312,52.226c0,2.239,0.699,3.891,2.1,4.948c1.4,1.062,3.062,1.591,4.98,1.591
		c0.84,0,1.65-0.069,2.43-0.209c0.779-0.143,1.5-0.32,2.16-0.541c0.66-0.22,1.25-0.438,1.771-0.659c0.52-0.221,0.938-0.41,1.26-0.57
		l-1.26-4.2c-0.32,0.2-0.91,0.472-1.771,0.812s-1.811,0.51-2.85,0.51c-0.922,0-1.723-0.26-2.4-0.78
		c-0.68-0.519-1.061-1.357-1.141-2.52v-19.44h7.021v-4.14h-7.021v-10.44h-5.279v10.44h-4.26v4.14h4.26V52.226L352.312,52.226z"/>
	<rect x="371.512" y="51.625" fill="#FFFFFF" width="4.438" height="6.72"/>
	<path fill="#FFFFFF" d="M0,0v73.271h396V0H0z M392,69.271H4V4h388V69.271z"/>
</g>
</svg>
